/* XPM */
static char * google_gadgets_xpm[] = {
"32 32 502 2",
"  	c None",
". 	c #1D1160",
"+ 	c #1F1363",
"@ 	c #251769",
"# 	c #1C2A77",
"$ 	c #1B3C86",
"% 	c #1A3B85",
"& 	c #183883",
"* 	c #1B1E6B",
"= 	c #371F6B",
"- 	c #5E2E6A",
"; 	c #933C60",
"> 	c #5481B2",
", 	c #0F91CC",
"' 	c #04AADE",
") 	c #00B1E4",
"! 	c #00AFE3",
"~ 	c #00AEE2",
"{ 	c #00ABE1",
"] 	c #00A9E1",
"^ 	c #029DD8",
"/ 	c #172E79",
"( 	c #2B1B70",
"_ 	c #563677",
": 	c #89517B",
"< 	c #BD697A",
"[ 	c #E47473",
"} 	c #FB7465",
"| 	c #FB695C",
"1 	c #FC5D51",
"2 	c #DC9798",
"3 	c #14BAE7",
"4 	c #00B4E5",
"5 	c #00B2E4",
"6 	c #30BEE8",
"7 	c #50C7EB",
"8 	c #80D5F0",
"9 	c #9FDFF4",
"0 	c #BFE9F7",
"a 	c #158DC8",
"b 	c #291A6E",
"c 	c #A96C8C",
"d 	c #EF978D",
"e 	c #FA9786",
"f 	c #FA8F7E",
"g 	c #FA8676",
"h 	c #FB7C6D",
"i 	c #FB7163",
"j 	c #FB665A",
"k 	c #FC5B4E",
"l 	c #FC5549",
"m 	c #87B5CB",
"n 	c #20BDE8",
"o 	c #FFFFFF",
"p 	c #CFEFF9",
"q 	c #80D2EF",
"r 	c #0F599F",
"s 	c #92678B",
"t 	c #FA9988",
"u 	c #FA9584",
"v 	c #FA9080",
"w 	c #FA8979",
"x 	c #FCA99F",
"y 	c #FEDDDA",
"z 	c #FED8D5",
"A 	c #FD968F",
"B 	c #FC4B40",
"C 	c #F17470",
"D 	c #23B7E2",
"E 	c #9FE2F5",
"F 	c #9FE1F5",
"G 	c #60CCED",
"H 	c #40C0E9",
"I 	c #80D4F0",
"J 	c #60C8EC",
"K 	c #DFF4FB",
"L 	c #129FD8",
"M 	c #192572",
"N 	c #2E1E66",
"O 	c #EDA099",
"P 	c #FA998A",
"Q 	c #FA8B7C",
"R 	c #FA8777",
"S 	c #FB9184",
"T 	c #FFF6F5",
"U 	c #FDAFA7",
"V 	c #FDB3AD",
"W 	c #FC7B71",
"X 	c #FED4D1",
"Y 	c #FEADA8",
"Z 	c #FD382F",
"` 	c #A6A6B7",
" .	c #30C0E9",
"..	c #BFEBF8",
"+.	c #AFE6F6",
"@.	c #BFEAF8",
"#.	c #EFF9FD",
"$.	c #80D1EF",
"%.	c #0B6AAE",
"&.	c #714E7B",
"*.	c #FA8B7B",
"=.	c #FB9C8F",
"-.	c #FA8172",
";.	c #FB7E6F",
">.	c #FDBCB5",
",.	c #FDC0BA",
"'.	c #FB6A5D",
").	c #FFEBEA",
"!.	c #FD8178",
"~.	c #FD7970",
"{.	c #FFE7E6",
"].	c #FD5750",
"^.	c #F85653",
"/.	c #2DB7E1",
"(.	c #DFF5FB",
"_.	c #8FD7F1",
":.	c #10A7DF",
"<.	c #172D79",
"[.	c #D18084",
"}.	c #FA8474",
"|.	c #FB988A",
"1.	c #FB7A6C",
"2.	c #FB7365",
"3.	c #FDAEA7",
"4.	c #FDBDB7",
"5.	c #FC6154",
"6.	c #FDA29B",
"7.	c #FEDDDB",
"8.	c #FD948E",
"9.	c #FEB5B2",
"0.	c #FE5D58",
"a.	c #FE1914",
"b.	c #A59DB0",
"c.	c #40C3EA",
"d.	c #AFE5F6",
"e.	c #50C5EA",
"f.	c #70CEEE",
"g.	c #80D3EF",
"h.	c #9FDDF3",
"i.	c #70CAEC",
"j.	c #077BBD",
"k.	c #3B276A",
"l.	c #FB9688",
"m.	c #FB7F70",
"n.	c #FB8172",
"o.	c #FC877A",
"p.	c #FB685C",
"q.	c #FC776C",
"r.	c #FFEBE9",
"s.	c #FD776D",
"t.	c #FC4F43",
"u.	c #FC453A",
"v.	c #FD473E",
"w.	c #FFE6E5",
"x.	c #FE4743",
"y.	c #FE0F0C",
"z.	c #F93436",
"A.	c #2CB3E0",
"B.	c #CFEFFA",
"C.	c #BFEAF7",
"D.	c #8FD9F1",
"E.	c #70CDED",
"F.	c #40BBE7",
"G.	c #20AEE2",
"H.	c #00A0DD",
"I.	c #009EDC",
"J.	c #153681",
"K.	c #553A72",
"L.	c #FC8E80",
"M.	c #FB7769",
"N.	c #FC8679",
"O.	c #FC594D",
"P.	c #FD938C",
"Q.	c #FFE9E7",
"R.	c #FEAEA9",
"S.	c #FE9E99",
"T.	c #FFAAA8",
"U.	c #FE1310",
"V.	c #FF0504",
"W.	c #FF0000",
"X.	c #A498AC",
"Y.	c #00A9E0",
"Z.	c #00A7E0",
"`.	c #0F95C4",
" +	c #1791BD",
".+	c #3382A0",
"++	c #3886A5",
"@+	c #69926C",
"#+	c #5B645B",
"$+	c #EE8D87",
"%+	c #FB7668",
"&+	c #FB7265",
"*+	c #FB796C",
"=+	c #FC695E",
"-+	c #FC4C41",
";+	c #FC463C",
">+	c #FD4B42",
",+	c #FE8D88",
"'+	c #FE9491",
")+	c #FE5753",
"!+	c #FE1511",
"~+	c #FF0705",
"{+	c #E31414",
"]+	c #C16062",
"^+	c #6DA298",
"/+	c #91A76A",
"(+	c #BAA93A",
"_+	c #DCC32C",
":+	c #E2C422",
"<+	c #FFD900",
"[+	c #FFD500",
"}+	c #FFD200",
"|+	c #FFD100",
"1+	c #3B2B53",
"2+	c #A96A81",
"3+	c #FB7063",
"4+	c #FB6E60",
"5+	c #FC796D",
"6+	c #FC3E34",
"7+	c #FD3930",
"8+	c #FD3229",
"9+	c #FD2922",
"0+	c #FE1E19",
"a+	c #F61A17",
"b+	c #D43939",
"c+	c #B3605D",
"d+	c #619B82",
"e+	c #3BB284",
"f+	c #14B976",
"g+	c #B8D96F",
"h+	c #FFD700",
"i+	c #FFD600",
"j+	c #FFDF40",
"k+	c #FFDE40",
"l+	c #FFDA30",
"m+	c #FFD000",
"n+	c #AA8824",
"o+	c #3D276B",
"p+	c #FC7D71",
"q+	c #FB685B",
"r+	c #FB6559",
"s+	c #FB6A5F",
"t+	c #FD4E44",
"u+	c #FE221C",
"v+	c #DB3F3C",
"w+	c #B86E6A",
"x+	c #5BB397",
"y+	c #21BF85",
"z+	c #00BC6F",
"A+	c #00B766",
"B+	c #00B664",
"C+	c #00B462",
"D+	c #55C884",
"E+	c #FFD912",
"F+	c #FFD810",
"G+	c #FFDC30",
"H+	c #FFF4BF",
"I+	c #FFEE9F",
"J+	c #FFCF00",
"K+	c #F1C306",
"L+	c #2D1F59",
"M+	c #C56E7A",
"N+	c #FB6357",
"O+	c #FB6054",
"P+	c #FC5C50",
"Q+	c #FC665B",
"R+	c #D84A47",
"S+	c #9E9B95",
"T+	c #41BD93",
"U+	c #00C075",
"V+	c #00B969",
"W+	c #00B867",
"X+	c #00B360",
"Y+	c #09B463",
"Z+	c #DBDC59",
"`+	c #FFF2AF",
" @	c #FFF6CF",
".@	c #FFED9F",
"+@	c #FFDD50",
"@@	c #806436",
"#@	c #5B3972",
"$@	c #FC6559",
"%@	c #FC5A4E",
"&@	c #FC574B",
"*@	c #BB8A84",
"=@	c #43BD98",
"-@	c #00BE72",
";@	c #00B868",
">@	c #60D3A0",
",@	c #BFEDD9",
"'@	c #9FE4C5",
")@	c #20BE76",
"!@	c #00B25E",
"~@	c #00B15C",
"{@	c #83CF7F",
"]@	c #FFD400",
"^@	c #FFF7CF",
"/@	c #FFE060",
"(@	c #FFCD00",
"_@	c #E3B60C",
":@	c #E16E6E",
"<@	c #E16259",
"[@	c #42B28F",
"}@	c #00B075",
"|@	c #60D2A0",
"1@	c #EFFAF5",
"2@	c #50CC94",
"3@	c #80D9B0",
"4@	c #20BC72",
"5@	c #00AF5A",
"6@	c #2ABB72",
"7@	c #F7D92C",
"8@	c #FFEC8F",
"9@	c #FFE670",
"0@	c #FFFCEF",
"a@	c #FFF0AF",
"b@	c #FFDC50",
"c@	c #FFCB00",
"d@	c #564148",
"e@	c #71416E",
"f@	c #BF7E77",
"g@	c #00AA6F",
"h@	c #00A669",
"i@	c #00B46C",
"j@	c #80DAB1",
"k@	c #9FE3C4",
"l@	c #00B461",
"m@	c #00B35F",
"n@	c #9FE2C3",
"o@	c #70D3A3",
"p@	c #00AE58",
"q@	c #00AD56",
"r@	c #C1D766",
"s@	c #FFE050",
"t@	c #FFEA8F",
"u@	c #FFE160",
"v@	c #FFEC9F",
"w@	c #FFCF10",
"x@	c #FFCE10",
"y@	c #FFCA00",
"z@	c #AA8624",
"A@	c #E16162",
"B@	c #7E9887",
"C@	c #00A162",
"D@	c #00A062",
"E@	c #00A86B",
"F@	c #00B261",
"G@	c #30C27F",
"H@	c #40C587",
"I@	c #20BB71",
"J@	c #DFF5EB",
"K@	c #DFF5EA",
"L@	c #80D7AB",
"M@	c #20B76B",
"N@	c #00AC54",
"O@	c #79CA74",
"P@	c #FFD720",
"Q@	c #FFD520",
"R@	c #FFCE00",
"S@	c #FFDF60",
"T@	c #FFC900",
"U@	c #2E2059",
"V@	c #733867",
"W@	c #4CA387",
"X@	c #00A061",
"Y@	c #00A060",
"Z@	c #00AE67",
"`@	c #50CA90",
" #	c #8FDCB6",
".#	c #CFF0DF",
"+#	c #00AA52",
"@#	c #30B971",
"##	c #F7D522",
"$#	c #FFCC00",
"%#	c #FFC800",
"&#	c #FEBC07",
"*#	c #543848",
"=#	c #1DA386",
"-#	c #009F5F",
";#	c #009E5E",
">#	c #009D5E",
",#	c #00A364",
"'#	c #00B05C",
")#	c #00B05B",
"!#	c #00AF59",
"~#	c #00AC55",
"{#	c #60CA93",
"]#	c #9FDFBE",
"^#	c #00A950",
"/#	c #08AA53",
"(#	c #D7D54B",
"_#	c #FEC305",
":#	c #FCAB0A",
"<#	c #FB9A09",
"[#	c #3D2453",
"}#	c #155676",
"|#	c #009D5D",
"1#	c #009C5C",
"2#	c #00A35C",
"3#	c #00AD57",
"4#	c #00AD55",
"5#	c #00AB52",
"6#	c #00AA51",
"7#	c #00A94F",
"8#	c #00A74D",
"9#	c #00A64C",
"0#	c #A6CD60",
"a#	c #FEBF06",
"b#	c #FCAE0A",
"c#	c #FB9E0A",
"d#	c #FB9B09",
"e#	c #C47D21",
"f#	c #1F1362",
"g#	c #049B74",
"h#	c #009C5B",
"i#	c #009B5B",
"j#	c #009A5A",
"k#	c #00AB56",
"l#	c #00AB53",
"m#	c #00A84F",
"n#	c #00A54C",
"o#	c #00A44A",
"p#	c #6DBC58",
"q#	c #FEC507",
"r#	c #FDB80A",
"s#	c #FCA80D",
"t#	c #FBA10C",
"u#	c #FB9F0A",
"v#	c #FB9C09",
"w#	c #ED900E",
"x#	c #3B2555",
"y#	c #125271",
"z#	c #009A59",
"A#	c #009958",
"B#	c #009D56",
"C#	c #00A54D",
"D#	c #00A04C",
"E#	c #009747",
"F#	c #008D41",
"G#	c #00813D",
"H#	c #468833",
"I#	c #FCA70F",
"J#	c #FCA40D",
"K#	c #FB9F0B",
"L#	c #FB9C0A",
"M#	c #C2771C",
"N#	c #2B1954",
"O#	c #049E78",
"P#	c #009857",
"Q#	c #009756",
"R#	c #009554",
"S#	c #00904A",
"T#	c #008A44",
"U#	c #008241",
"V#	c #007E3E",
"W#	c #007A3B",
"X#	c #007738",
"Y#	c #007536",
"Z#	c #007233",
"`#	c #3F7D28",
" $	c #FB9E0B",
".$	c #DE8A12",
"+$	c #613B42",
"@$	c #1C4373",
"#$	c #009755",
"$$	c #009654",
"%$	c #008444",
"&$	c #007E3F",
"*$	c #007C3D",
"=$	c #007839",
"-$	c #007637",
";$	c #007334",
">$	c #007032",
",$	c #006E2F",
"'$	c #7E871D",
")$	c #DF8D15",
"!$	c #714640",
"~$	c #1C105D",
"{$	c #07866E",
"]$	c #008848",
"^$	c #007B3C",
"/$	c #007A3A",
"($	c #007335",
"_$	c #007133",
":$	c #006F31",
"<$	c #006C2E",
"[$	c #006E30",
"}$	c #6A5D34",
"|$	c #634047",
"1$	c #1A2360",
"2$	c #067C56",
"3$	c #007F3F",
"4$	c #007638",
"5$	c #03703A",
"6$	c #075D41",
"7$	c #0F434B",
"8$	c #162A56",
"9$	c #1E1161",
"0$	c #192A5E",
"a$	c #16315C",
"b$	c #18295D",
"c$	c #1E1261",
"                                                                ",
"                                                                ",
"                            . + @ # $ % & *                     ",
"                  @ = - ; > , ' ) ! ~ { ] ^ /                   ",
"          ( _ : < [ } | 1 2 3 4 5 6 7 8 9 0 a .                 ",
"      b c d e f g h i j k l m n o o o o o p q r                 ",
"      s t u v w x y o z A B C D E F G H I J K L M               ",
"    N O P Q R S T U V W X Y Z `  ...+.@.I #.q $.%..             ",
"    &.*.=.-.;.>.,.'.).!.~.{.].^./...G (.9 o _.K :.<.            ",
"  . [.}.|.1.2.3.4.5.6.7.8.9.0.a.b.c.d.e.f.g.h.#.i.j..           ",
"  k.l.m.n.o.p.q.r.s.t.u.v.w.x.y.z.A.B.C.D.E.F.G.H.I.J.          ",
"  K.L.1.M.N.1 O.P.Q.R.S.w.T.U.V.W.X.{ Y.Z.`. +.+++@+#+.         ",
"  . $+%+&+*+=+-+;+>+,+'+)+!+~+W.{+]+^+/+(+_+:+<+[+}+|+1+        ",
"    2+3+4+'.5+6+7+8+9+0+a+b+c+d+e+f+g+h+i+[+j+k+}+l+m+n+        ",
"    o+p+q+r+s+t+9+u+v+w+x+y+z+A+B+C+D+E+F+j+G+H+I+I+J+K+L+      ",
"    . M+N+O+P+Q+R+S+T+U+V+W+A+B+C+X+Y+Z+F+`+H+o o  @.@+@@@      ",
"      #@$@%@&@*@=@-@V+;@>@,@'@)@X+!@~@{@]@j+^@o o o /@(@_@.     ",
"      . :@l <@[@}@;@W+|@1@2@3@1@4@~@5@6@7@8@9@o o 0@a@b@c@d@    ",
"        e@&@f@g@h@i@B+j@k@l@m@n@o@5@p@q@r@}+s@t@u@v@w@x@y@z@    ",
"        . A@B@C@D@E@F@G@1@H@I@J@K@L@M@N@O@}+P@Q@R@S@c@y@T@c@U@  ",
"          V@W@X@Y@X@Z@!@`@J@o  #.#o o +#@###m+R@(@$#y@T@%#&#*#  ",
"          + =#-#;#>#,#'#)#!#p@q@~#{#]#^#/#(#R@(@$#c@T@_#:#<#[#  ",
"            }#D@|#1#1#2#p@3#4#N@5#6#7#8#9#0#(@$#c@a#b#c#d#e#.   ",
"            f#g#h#i#j#1#k#N@l#6#^#m#8#n#o#p#q#r#s#t#u#v#w#x#    ",
"              y#D@z#A#A#B#6#^#7#C#D#E#F#G#H#I#J#t#K#L#M#N#      ",
"              . O#P#P#Q#R#S#T#U#V#W#X#Y#Z#`#J#t# $.$+$.         ",
"                @$>##$$$%$&$*$W#=$-$;$>$,$'$t#)$!$~$            ",
"                . {$R#]$^$/$=$-$($_$:$<$[$}$|$.                 ",
"                  1$2$3$4$Y#;$Y#5$6$7$8$9$                      ",
"                    . 0$a$a$b$c$. .                             ",
"                                                                ",
"                                                                "};
